<svg xmlns="http://www.w3.org/2000/svg" xmlns:xlink="http://www.w3.org/1999/xlink" viewBox="0,0,256,256" width="50px" height="50px" fill-rule="nonzero"><g transform="translate(40.96,40.96) scale(0.68,0.68)"><g fill-opacity="0" fill="#dddddd" fill-rule="nonzero" stroke="none" stroke-width="1" stroke-linecap="butt" stroke-linejoin="miter" stroke-miterlimit="10" stroke-dasharray="" stroke-dashoffset="0" font-family="none" font-weight="none" font-size="none" text-anchor="none" style="mix-blend-mode: normal"><path d="M-60.23529,316.23529v-376.47059h376.47059v376.47059z" id="bgRectangle"></path></g><g fill="none" fill-rule="nonzero" stroke="none" stroke-width="none" stroke-linecap="butt" stroke-linejoin="none" stroke-miterlimit="10" stroke-dasharray="" stroke-dashoffset="0" font-family="none" font-weight="none" font-size="none" text-anchor="none" style="mix-blend-mode: normal"><path transform="scale(5.12,5.12)" d="M41.55859,8.61328c2.05438,-0.48295 3.94131,-1.19392 5.64063,-2.17773c0.35737,-0.20607 0.80459,-0.17157 1.12613,0.08687c0.32153,0.25844 0.4514,0.68778 0.327,1.0811c-0.35096,1.10302 -0.95124,2.1165 -1.64648,3.05469c0.54889,-0.18382 1.1595,-0.23799 1.6875,-0.47266c0.40467,-0.17945 0.87917,-0.07152 1.1664,0.26532c0.28723,0.33684 0.31886,0.82242 0.07774,1.19367c-1.27616,1.96333 -2.92739,3.60996 -4.73828,5.00781v0.84766c0,6.75385 -2.5529,13.96863 -7.46094,19.53711c-4.90803,5.56848 -12.21282,9.46289 -21.53906,9.46289c-5.79048,0 -11.08701,-1.66137 -15.63672,-4.55664c-0.39815,-0.25286 -0.56552,-0.74952 -0.40161,-1.19178c0.16391,-0.44226 0.61453,-0.70989 1.0813,-0.6422c0.59441,0.08494 1.3582,0.08984 2.1582,0.08984c3.48308,0 6.71292,-0.97585 9.52539,-2.62305c-3.57309,-0.91362 -6.41348,-3.67794 -7.57422,-7.16016c-0.11092,-0.33277 -0.0394,-0.69932 0.18848,-0.96599c0.22788,-0.26666 0.57881,-0.39445 0.9248,-0.33675c0.05046,0.00843 0.09886,0.00742 0.15039,0.01563c-2.80749,-1.9732 -4.71484,-5.12744 -4.71484,-8.82812v-0.10156c0.00001,-0.34659 0.17947,-0.66846 0.47429,-0.85069c0.29482,-0.18222 0.66297,-0.19881 0.97298,-0.04385c0.24133,0.12066 0.52813,0.10596 0.77539,0.20703c-1.305,-1.79667 -2.12305,-3.94931 -2.12305,-6.3125c0,-1.98518 0.54768,-3.8476 1.43164,-5.39453c0.17399,-0.30469 0.49493,-0.49592 0.8457,-0.50391c0.30465,-0.00698 0.59587,0.12533 0.79102,0.35938c4.49084,5.40734 11.0734,9.15407 18.4043,9.84961c-0.04288,-0.36016 -0.07227,-0.72463 -0.07227,-1.10937c0,-5.94321 4.85562,-10.80078 10.79883,-10.80078c2.83933,0 5.40806,1.20249 7.35938,3.01367z" id="strokeMainSVG" fill="#dddddd" stroke="#dddddd" stroke-width="8" stroke-linejoin="round"></path><g transform="scale(5.12,5.12)" fill="#000000" stroke="none" stroke-width="1" stroke-linejoin="miter"><path d="M34.19922,5.59961c-5.94321,0 -10.79883,4.85757 -10.79883,10.80078c0,0.38474 0.02939,0.74921 0.07227,1.10938c-7.33089,-0.69554 -13.91346,-4.44227 -18.4043,-9.84961c-0.19515,-0.23405 -0.48636,-0.36635 -0.79102,-0.35937c-0.35078,0.00799 -0.67171,0.19922 -0.8457,0.50391c-0.88396,1.54693 -1.43164,3.40935 -1.43164,5.39453c0,2.36319 0.81804,4.51583 2.12305,6.3125c-0.24726,-0.10107 -0.53406,-0.08637 -0.77539,-0.20703c-0.31001,-0.15497 -0.67816,-0.13838 -0.97298,0.04385c-0.29482,0.18222 -0.47427,0.5041 -0.47429,0.85069v0.10156c0,3.70069 1.90735,6.85492 4.71484,8.82813c-0.05153,-0.0082 -0.09993,-0.00719 -0.15039,-0.01562c-0.34599,-0.0577 -0.69692,0.07009 -0.9248,0.33675c-0.22788,0.26666 -0.2994,0.63322 -0.18848,0.96599c1.16074,3.48222 4.00113,6.24654 7.57422,7.16016c-2.81247,1.6472 -6.04231,2.62305 -9.52539,2.62305c-0.8,0 -1.5638,-0.0049 -2.1582,-0.08984c-0.46677,-0.06769 -0.9174,0.19994 -1.0813,0.6422c-0.16391,0.44226 0.00346,0.93892 0.40161,1.19178c4.54971,2.89527 9.84624,4.55664 15.63672,4.55664c9.32624,0 16.63103,-3.89441 21.53906,-9.46289c4.90803,-5.56848 7.46094,-12.78326 7.46094,-19.53711v-0.84766c1.81089,-1.39786 3.46212,-3.04448 4.73828,-5.00781c0.24112,-0.37124 0.2095,-0.85683 -0.07774,-1.19367c-0.28723,-0.33684 -0.76173,-0.44477 -1.1664,-0.26532c-0.528,0.23466 -1.13861,0.28883 -1.6875,0.47266c0.69524,-0.93819 1.29552,-1.95167 1.64648,-3.05469c0.1244,-0.39332 -0.00546,-0.82266 -0.327,-1.0811c-0.32153,-0.25844 -0.76876,-0.29294 -1.12613,-0.08687c-1.69931,0.98381 -3.58625,1.69478 -5.64062,2.17773c-1.95132,-1.81118 -4.52004,-3.01367 -7.35937,-3.01367zM34.19922,7.59961c2.51429,0 4.86069,1.08548 6.47461,2.78906c0.24093,0.25421 0.59729,0.36386 0.93945,0.28906c1.32135,-0.28725 2.56957,-0.69327 3.77148,-1.17383c-0.69583,0.92951 -1.52981,1.75578 -2.5,2.33789c-0.41125,0.24497 -0.59125,0.747 -0.42934,1.19747c0.1619,0.45047 0.6203,0.72305 1.09341,0.65018c0.98648,-0.14797 1.89059,-0.54293 2.83984,-0.79883c-0.85129,0.91271 -1.772,1.76025 -2.78125,2.50391c-0.25621,0.18812 -0.40774,0.48683 -0.4082,0.80469v1.30078c0,6.24615 -2.39397,13.03137 -6.96094,18.21289c-4.56697,5.18152 -11.26531,8.78711 -20.03906,8.78711c-4.05273,0 -7.81944,-0.86492 -11.24219,-2.43555c4.21458,-0.32276 8.08289,-1.84763 11.25,-4.26953c0.23044,-0.17577 0.37334,-0.44284 0.3917,-0.73208c0.01836,-0.28924 -0.08962,-0.57224 -0.29599,-0.77573c-0.1922,-0.24757 -0.48934,-0.39072 -0.80273,-0.38672c-3.25913,0 -5.99023,-1.91486 -7.48828,-4.61914c0.06488,0.0017 0.12291,0.01953 0.1875,0.01953c0.97407,0 1.94864,-0.1063 2.84375,-0.33008c0.45075,-0.11186 0.76519,-0.51931 0.75913,-0.9837c-0.00606,-0.46439 -0.33101,-0.8635 -0.78452,-0.96357c-3.5891,-0.79758 -6.25576,-3.66011 -6.86328,-7.28516c1.02498,0.33682 2.07816,0.59107 3.18359,0.66016c0.45128,0.02807 0.86526,-0.25013 1.00975,-0.67858c0.14449,-0.42844 -0.01645,-0.90054 -0.39257,-1.1515c-2.4345,-1.623 -3.95508,-4.30247 -3.95508,-7.36914c0,-1.12725 0.27765,-2.1733 0.6543,-3.1543c5.03451,5.45107 12.05348,9.16738 19.89648,9.55469c0.03318,0.00165 0.06643,0.00165 0.09961,0c0.00065,0 0.0013,0 0.00195,0c0.32185,0.0154 0.6314,-0.12517 0.8316,-0.37765c0.2002,-0.25247 0.26652,-0.58593 0.17816,-0.89579c-0.17581,-0.61534 -0.26172,-1.20912 -0.26172,-1.92578c0,-4.85679 3.94204,-8.80078 8.79883,-8.80078z"></path></g></g></g></svg>